<!--?xml version="1.0" encoding="utf-8"?-->
<!-- Generator: Adobe Illustrator 18.1.1, SVG Export Plug-In . SVG Version: 6.00 Build 0)  -->

<svg version="1.1" id="_x32_" xmlns="http://www.w3.org/2000/svg" xmlns:xlink="http://www.w3.org/1999/xlink" x="0px" y="0px" viewBox="0 0 512 512" style="width: 256px; height: 256px; opacity: 1;" xml:space="preserve">
<style type="text/css">
	.st0{fill:#4B4B4B;}
</style>
<g>
	<polygon class="st0" points="30.291,174.821 30.291,51.704 164.736,186.154 186.151,164.735 51.706,30.294 174.819,30.294 
		174.819,0 0.002,0 0.005,174.821 	" style="fill: rgb(0, 0, 0);"></polygon>
	<polygon class="st0" points="337.177,0 337.177,30.294 460.294,30.294 325.848,164.743 347.263,186.154 481.713,51.704 
		481.713,174.821 511.998,174.821 511.998,0 	" style="fill: rgb(0, 0, 0);"></polygon>
	<polygon class="st0" points="164.736,325.847 30.291,460.288 30.291,337.17 0.005,337.179 0.002,512 174.819,512 174.819,481.706 
		51.706,481.706 186.155,347.266 	" style="fill: rgb(0, 0, 0);"></polygon>
	<polygon class="st0" points="481.713,460.288 347.263,325.839 325.844,347.266 460.294,481.706 337.177,481.706 337.177,512 
		511.998,512 511.998,337.179 481.705,337.187 	" style="fill: rgb(0, 0, 0);"></polygon>
</g>
</svg>
