<!--?xml version="1.0" encoding="utf-8"?-->
<!-- Generator: Adobe Illustrator 18.1.1, SVG Export Plug-In . SVG Version: 6.00 Build 0)  -->

<svg version="1.1" id="_x32_" xmlns="http://www.w3.org/2000/svg" xmlns:xlink="http://www.w3.org/1999/xlink" x="0px" y="0px" viewBox="0 0 512 512" style="width: 256px; height: 256px; opacity: 1;" xml:space="preserve">
<style type="text/css">
	.st0{fill:#4B4B4B;}
</style>
<g>
	<polygon class="st0" points="500.66,155.854 377.547,155.854 511.993,21.418 490.574,0.008 356.137,134.444 356.137,11.331 
		325.844,11.339 325.844,186.147 500.66,186.147 	" style="fill: rgb(0, 0, 0);"></polygon>
	<polygon class="st0" points="377.547,356.129 500.66,356.129 500.66,325.844 325.844,325.837 325.844,500.653 356.137,500.668 
		356.137,377.555 490.59,511.992 512,490.565 	" style="fill: rgb(0, 0, 0);"></polygon>
	<polygon class="st0" points="11.34,155.863 11.348,186.155 186.156,186.155 186.156,11.347 155.88,11.339 155.88,134.444 
		21.434,0.008 0.016,21.426 134.453,155.863 	" style="fill: rgb(0, 0, 0);"></polygon>
	<polygon class="st0" points="11.355,325.837 11.355,356.121 134.453,356.121 0,490.565 21.442,511.984 155.871,377.539 
		155.871,500.653 186.171,500.644 186.164,325.837 	" style="fill: rgb(0, 0, 0);"></polygon>
</g>
</svg>
